# xmcd
#
# Track frame offsets:
#	150
#	14182
#	26481
#	40918
#	52560
#	68241
#	81589
#	95725
#	110985
#	125122
#	141795
#	156127
#	171115
#	188378
#	202291
#	217623
#	232687
#	247920
#	260795
#	276903
#	291483
#
# Disc length: 4049 seconds
#
# Revision: 0
# Processed by: cddbd v1.5.2PL0 Copyright (c) Steve Scherf et al.
# Submitted via: EZCDAudioConverter 4.0.5.1
#
DISCID=3b0fcf15
DTITLE=Multi Music Group - Hott Country # 280 CAN2019
DYEAR=2019
DGENRE=Country
TTITLE0=Luke Combs - Beer Never Broke My Heart
TTITLE1=Tebey - Good Jeans
TTITLE2=Jake Owen\nJake Owen - Homemade
TTITLE3=Toby Keith - That's Country Bro
TTITLE4=Jon Pardi - Heartache Medication
TTITLE5=Hunter Brothers - Northern Lights
TTITLE6=P!nk ft. Chris Stapleton - Love Me Anyway
TTITLE7=Dallas Smith - Drop
TTITLE8=Seaforth - Love That
TTITLE9=Randy Houser - No Stone Unturned
TTITLE10=Keith Urban\n - We Were
TTITLE11=Tyler Rich - Leave Her Wild
TTITLE12=Tenille Arts - Call You Names
TTITLE13=Jameson Rodgers - Some Girls
TTITLE14=Ddendyl Hoyt - Where I Come From
TTITLE15=Unknown artistCold Creek County ft. Rachel Wammack - Gold
TTITLE16=Kadooh - Somethin' To Roll On
TTITLE17=Leanne Pearson - Hot Pursuit
TTITLE18=Charlie Major - All Of Your Love
TTITLE19=Emily Reid - Good Time Being A Woman
TTITLE20=Maddie Storvold\n - Don't Say You Love Me
EXTD=
EXTT0=
EXTT1=
EXTT2=
EXTT3=
EXTT4=
EXTT5=
EXTT6=
EXTT7=
EXTT8=
EXTT9=
EXTT10=
EXTT11=
EXTT12=
EXTT13=
EXTT14=
EXTT15=
EXTT16=
EXTT17=
EXTT18=
EXTT19=
EXTT20=
PLAYORDER=
